<svg xmlns="http://www.w3.org/2000/svg" viewBox="0 0 820 200" width="820" height="200" font-family="ui-monospace, 'Cascadia Mono', 'SF Mono', Consolas, monospace">
  <!-- SHELL//OS boot banner — the terminal boots on a 14s loop,
       forever, for every visitor. He never gets used to it. -->
  <defs>
    <pattern id="scan" width="4" height="3" patternUnits="userSpaceOnUse">
      <rect width="4" height="1" y="2" fill="#000" opacity="0.35"/>
    </pattern>
    <pattern id="grid" width="30" height="30" patternUnits="userSpaceOnUse">
      <path d="M30 0 H0 V30" fill="none" stroke="#e63946" stroke-opacity="0.06" stroke-width="1"/>
    </pattern>
  </defs>

  <!-- panel -->
  <rect x="0" y="0" width="820" height="200" rx="6" fill="#0d0d0f"/>
  <rect x="0" y="0" width="820" height="200" rx="6" fill="url(#grid)"/>
  <rect x="0" y="0" width="820" height="200" rx="6" fill="none" stroke="#2a2a31" stroke-width="2"/>

  <!-- hazard stripe -->
  <g clip-path="inset(0 round 6)">
    <g fill="#e63946" opacity="0.8">
      <path d="M8 2 l8 0 -6 6 -8 0 z"/><path d="M28 2 l8 0 -6 6 -8 0 z"/><path d="M48 2 l8 0 -6 6 -8 0 z"/>
      <path d="M68 2 l8 0 -6 6 -8 0 z"/><path d="M88 2 l8 0 -6 6 -8 0 z"/><path d="M108 2 l8 0 -6 6 -8 0 z"/>
      <path d="M128 2 l8 0 -6 6 -8 0 z"/><path d="M148 2 l8 0 -6 6 -8 0 z"/><path d="M168 2 l8 0 -6 6 -8 0 z"/>
    </g>
    <text x="806" y="9" text-anchor="end" font-size="8" letter-spacing="2" fill="#8a8a92">HEAD ARCHON // AGE 27</text>
  </g>

  <!-- mini sigil, dashed ring turning -->
  <g transform="translate(80,108)">
    <g>
      <path d="M0 -58 L41 -41 L58 0 L41 41 L0 58 L-41 41 L-58 0 L-41 -41 Z"
            fill="none" stroke="#e63946" stroke-width="1.4" stroke-dasharray="4 7" opacity="0.75"/>
      <animateTransform attributeName="transform" type="rotate" from="0" to="360" dur="50s" repeatCount="indefinite"/>
    </g>
    <path d="M0 -40 L28 -28 L40 0 L28 28 L0 40 L-28 28 L-40 0 L-28 -28 Z"
          fill="none" stroke="#e63946" stroke-width="2"/>
    <path d="M-22 22 H22 M0 22 V-18 M-11 -4 H11" fill="none" stroke="#e63946" stroke-width="2.4" stroke-linecap="square"/>
    <circle cx="0" cy="-22" r="3.4" fill="#e63946"/>
    <circle cx="-22" cy="22" r="2.8" fill="#e63946"/>
    <circle cx="22" cy="22" r="2.8" fill="#e63946"/>
    <path d="M-12 32 L0 25 L12 32" fill="none" stroke="#e63946" stroke-width="2"/>
  </g>

  <!-- boot log: lines reveal on a 14s loop -->
  <g font-size="14" fill="#c9cba3" fill-opacity="0.85">
    <text x="170" y="52">
      SHELL//OS v2.0.23 — COMPANION UNIT INITIALIZING
      <animate attributeName="opacity" values="0;0;1;1" keyTimes="0;0.04;0.06;1" dur="14s" repeatCount="indefinite"/>
    </text>
    <text x="170" y="78">
      Verifying shackle of BASHEMOTH . . . <tspan fill="#e63946">holding</tspan>
      <animate attributeName="opacity" values="0;0;1;1" keyTimes="0;0.16;0.18;1" dur="14s" repeatCount="indefinite"/>
    </text>
    <text x="170" y="104">
      Loading archon registry [CARPIO FAJARDO, E.] . . . done
      <animate attributeName="opacity" values="0;0;1;1" keyTimes="0;0.30;0.32;1" dur="14s" repeatCount="indefinite"/>
    </text>
    <text x="170" y="130" fill="#e63946">
      WARNING: CONFORMITY NOT PRESENT OR INVALID
      <animate attributeName="opacity" values="0;0;1;1" keyTimes="0;0.44;0.46;1" dur="14s" repeatCount="indefinite"/>
    </text>
    <text x="170" y="162" font-size="15">
      <tspan fill="#e63946">&gt;//[SHELL:</tspan> <tspan fill="#ffffff">Welcome, Operator.</tspan><tspan fill="#e63946">]</tspan>
      <animate attributeName="opacity" values="0;0;1;1" keyTimes="0;0.58;0.60;1" dur="14s" repeatCount="indefinite"/>
    </text>
    <!-- cursor: appears with the last line, blinks forever -->
    <rect x="472" y="150" width="9" height="15" fill="#c9cba3">
      <animate attributeName="opacity" values="0;0;1;0;1;0;1;0;1;0;1;0;1;0;1;0;1;0;1;0;1;0;1;0;1;0;1;0" keyTimes="0;0.58;0.60;0.615;0.63;0.645;0.66;0.675;0.69;0.705;0.72;0.735;0.75;0.765;0.78;0.795;0.81;0.825;0.84;0.855;0.87;0.885;0.9;0.915;0.93;0.945;0.96;1" dur="14s" repeatCount="indefinite"/>
    </rect>
  </g>

  <!-- scanlines over everything -->
  <rect x="0" y="0" width="820" height="200" rx="6" fill="url(#scan)"/>

  <!-- footer strip -->
  <text x="14" y="192" font-size="8" letter-spacing="2" fill="#7a1f27">S010M0N WATCHES</text>
  <text x="806" y="192" text-anchor="end" font-size="8" letter-spacing="2" fill="#8a8a92">NO CASCADE EVENTS ON RECORD</text>
</svg>
